# xmcd
#
# Track frame offsets:
#        150
#        24725
#        41087
#        57450
#        80155
#        96722
#        117370
#        137222
#        156832
#        174855
#        196132
#        210860
#        232132
#        250747
#        272222
#        296767
#
# Disc length: 4310 seconds
#
# Revision: 0
# Processed by: cddbd v1.5.1PL0 Copyright (c) Steve Scherf et al.
# Submitted via: ExactAudioCopy v0.95a5
#
DISCID=f210d410
DTITLE=PENTAGON - REVELATION
DYEAR=2005
DGENRE=Drum and Bass
TTITLE0=Cruiser
TTITLE1=Searchin'
TTITLE2=Blaze Of The Night
TTITLE3=Get It On
TTITLE4=Fever
TTITLE5=Something
TTITLE6=Move On
TTITLE7=Friday Night
TTITLE8=Soul Mate
TTITLE9=So Special
TTITLE10=Lady Bird
TTITLE11=Quaver
TTITLE12=What Can We Do For?
TTITLE13=Zero Gravity
TTITLE14=Tonight
TTITLE15=You Thought' bout Me
EXTD=
EXTT0=
EXTT1=
EXTT2=
EXTT3=
EXTT4=
EXTT5=
EXTT6=
EXTT7=
EXTT8=
EXTT9=
EXTT10=
EXTT11=
EXTT12=
EXTT13=
EXTT14=
EXTT15=
PLAYORDER=
